<svg id="Layer_1" data-name="Layer 1" xmlns="http://www.w3.org/2000/svg" xmlns:xlink="http://www.w3.org/1999/xlink" viewBox="0 0 122 122"><defs><style>.cls-1{fill:url(#linear-gradient);}.cls-2{fill:#fff;}</style><linearGradient id="linear-gradient" x1="61" y1="118.29" x2="61" y2="26.83" gradientUnits="userSpaceOnUse"><stop offset="0" stop-color="#ed4523"/><stop offset="0.36" stop-color="#ed4823"/><stop offset="0.58" stop-color="#ee5022"/><stop offset="0.76" stop-color="#f05f22"/><stop offset="0.92" stop-color="#f27321"/><stop offset="1" stop-color="#f38020"/></linearGradient></defs><title>icon web tima</title><circle class="cls-1" cx="61" cy="61" r="61"/><path class="cls-2" d="M89,69a3.15,3.15,0,0,1-3.64,2.42c-.41,0-.84,0-1.25,0a.76.76,0,0,0-.82.45,5.46,5.46,0,0,1-9.42,0,.71.71,0,0,0-.72-.41H58.28a5,5,0,0,1-.55,0,.75.75,0,0,1-.74-.74.74.74,0,0,1,.62-.84,2.32,2.32,0,0,1,.65,0H73.09l.13-2.16H51.37l.15,2.16c.61,0,1.25,0,1.9,0a2.8,2.8,0,0,1,.71,0,.75.75,0,0,1,.64.88.73.73,0,0,1-.76.71c-.88,0-1.75,0-2.63,0a.63.63,0,0,0-.64.37,5.23,5.23,0,0,1-4.84,2.74,5.33,5.33,0,0,1-4.85-3.09A1,1,0,0,0,40.5,71c-2-.43-4.07-.83-6.1-1.23C33.24,69.5,33,69.22,33,68V63.89c0-1.18.35-1.54,1.51-1.57l.39,0c0-.2,0-.39,0-.58V57a2.12,2.12,0,0,1,2.35-2.33c.78,0,1.56,0,2.35,0a.78.78,0,0,0,.53-.27,17.08,17.08,0,0,1,11.75-6.76,28.34,28.34,0,0,1,4.42,0,23.8,23.8,0,0,1,6.16.77,17.43,17.43,0,0,1,6.87,3.9c1.07,1,2.14,2,3.23,3a1.36,1.36,0,0,0,.81.3c1.38.06,2.76.07,4.14.13a.82.82,0,0,1,.84.88.85.85,0,0,1-.92.75c-2,0-4,0-5.95-.1q-12.18-.37-24.37-.8l-.93,0a1.63,1.63,0,0,1-1.47-1.05,1.61,1.61,0,0,1,.3-1.78A17.81,17.81,0,0,1,49,50.12a.7.7,0,0,0,.29-.3l-.51.16a15.71,15.71,0,0,0-7.53,5.74,1.18,1.18,0,0,1-1.1.56c-.52,0-1.05,0-1.69,0,.52.75,1,1.44,1.46,2.07a3.19,3.19,0,0,1,.51,2.6,2,2,0,0,1-1.9,1.58H36.79c-.24.51-.34,1.07-.68,1.29a3.55,3.55,0,0,1-1.44.22v1.86l.49,0c2,0,3.9,0,5.85,0a.83.83,0,0,0,.73-.34,5.44,5.44,0,0,1,8.48,0,.92.92,0,0,0,.78.38q11.3,0,22.58,0a.87.87,0,0,0,.78-.37,5.43,5.43,0,0,1,8.44,0,1,1,0,0,0,.83.39c1.21,0,2.43,0,3.69,0V65.3c-1-.17-1.92-.27-2.84-.51a3.86,3.86,0,0,1-2.25-1.55,1.66,1.66,0,0,1,1-2.77,11.1,11.1,0,0,1,1.73-.25,8.49,8.49,0,0,1,1,0l0-.2c-.88-.4-1.75-.83-2.65-1.2-.7-.29-1.43-.52-2.15-.77-.56-.2-.81-.62-.65-1.08a.8.8,0,0,1,1.11-.47c1.63.63,3.27,1.24,4.84,2a4.42,4.42,0,0,1,2.43,3.2c0,.1.07.2.11.3ZM58,55.08a11.78,11.78,0,0,0,0-5.84c-4.84-.16-8.56,1.95-11.73,5.28l0,.16Zm1.74-5.61a14.24,14.24,0,0,1-.06,5.67l10.71.35C67.42,52.38,64.17,50,59.75,49.47ZM49.84,69A3.84,3.84,0,1,0,46,72.87,3.86,3.86,0,0,0,49.84,69Zm24.92,0a3.84,3.84,0,1,0,3.84-3.81A3.84,3.84,0,0,0,74.76,69Zm9.35.74c.72,0,1.45,0,2.17,0a1.09,1.09,0,0,0,1-.88,8.39,8.39,0,0,0,.1-1.23H84ZM40.65,67.6h-6c-.15.4,0,.52.35.59,1.08.2,2.15.43,3.22.64l2.22.43Zm-4-6.72c.63,0,1.19,0,1.75,0,.16,0,.44-.23.43-.34a3.09,3.09,0,0,0-.25-1.22,14.09,14.09,0,0,0-1.08-1.57l-.85-1.19Zm50.74,2.58c0-.39,0-.75,0-1.11s-.14-.57-.56-.54c-.77,0-1.56,0-2.34.08a6.8,6.8,0,0,0-1,.17C84,63.12,85.67,63.7,87.34,63.46Z"/><path class="cls-2" d="M49,57.86a3.25,3.25,0,0,1,.93.53.72.72,0,0,1-.16,1.06,1.5,1.5,0,0,1-1.63-.05.7.7,0,0,1-.09-1A3.38,3.38,0,0,1,49,57.86Z"/><path class="cls-2" d="M61.27,58c.46,0,.94,0,1,.55a1.22,1.22,0,0,1-.28.89,1.43,1.43,0,0,1-1.53,0,.77.77,0,0,1-.23-1C60.46,58,60.85,58,61.27,58Z"/><path class="cls-2" d="M48.67,69A2.67,2.67,0,0,1,46,71.7,2.68,2.68,0,1,1,48.67,69ZM47,69a1,1,0,0,0-1-1,1,1,0,0,0,0,2.07A1,1,0,0,0,47,69Z"/><path class="cls-2" d="M81.26,69.05a2.66,2.66,0,0,1-2.69,2.65,2.68,2.68,0,1,1,2.69-2.65ZM78.6,68a1,1,0,1,0,0,2.07,1,1,0,0,0,0-2.07Z"/></svg>