<svg id="Layer_1" data-name="Layer 1" xmlns="http://www.w3.org/2000/svg" xmlns:xlink="http://www.w3.org/1999/xlink" viewBox="0 0 122 122"><defs><style>.cls-1{fill:url(#linear-gradient);}.cls-2{fill:#fff;}.cls-3{fill:none;stroke:#fff;stroke-miterlimit:10;}</style><linearGradient id="linear-gradient" x1="61" y1="118.29" x2="61" y2="26.83" gradientUnits="userSpaceOnUse"><stop offset="0" stop-color="#ed4523"/><stop offset="0.36" stop-color="#ed4823"/><stop offset="0.58" stop-color="#ee5022"/><stop offset="0.76" stop-color="#f05f22"/><stop offset="0.92" stop-color="#f27321"/><stop offset="1" stop-color="#f38020"/></linearGradient></defs><title>icon web tima</title><circle class="cls-1" cx="61" cy="61" r="61"/><path class="cls-2" d="M37.89,76.57a2.51,2.51,0,0,1-2.81-2.79V48.25a2.51,2.51,0,0,1,2.84-2.82H58.16V43.79H37.66a4.11,4.11,0,0,0-3.91,2.56c-.12.3-.21.62-.31.92V74.73a.41.41,0,0,1,.05.09A4.15,4.15,0,0,0,38,78.21H58.16V76.57Z"/><path class="cls-2" d="M47.35,48.71h4.7A4.12,4.12,0,0,1,56.37,53q0,4.75,0,9.51a4.16,4.16,0,0,1-4.28,4.23H42.7a4.12,4.12,0,0,1-4.34-4.37V53.07a4.12,4.12,0,0,1,4.34-4.36Zm6.39,15.85a2.29,2.29,0,0,0,1-1.91c0-3.28,0-6.57,0-9.85a2.39,2.39,0,0,0-2.38-2.44q-5,0-10,0A2.39,2.39,0,0,0,40,52.69c0,3.35,0,6.71,0,10.06a2,2,0,0,0,1,1.74c1-2.11,1-2.11,3.39-3.92A4.85,4.85,0,0,1,44,53.36a4.78,4.78,0,0,1,6.62,0,4.6,4.6,0,0,1,1.49,3.14,4.78,4.78,0,0,1-1.83,4.11C52.43,62,52.91,62.57,53.74,64.56ZM50.5,56.78a3.14,3.14,0,1,0-3.12,3.15A3.16,3.16,0,0,0,50.5,56.78Zm1.62,8.29a5,5,0,0,0-5.35-3.47c-1.89.18-4,1.91-4.11,3.47Z"/><path class="cls-2" d="M52.34,68.37H39.43c-.68,0-1.07.3-1.07.81s.39.83,1.06.83H58.16V68.37Z"/><path class="cls-2" d="M58.15,71.65H39.67a5.09,5.09,0,0,0-.55,0,.76.76,0,0,0-.75.73.77.77,0,0,0,.66.87,2.42,2.42,0,0,0,.54,0H58.16V71.65Z"/><path class="cls-2" d="M70,56.22l-9.4-.31v1.64l10.52.34c2,.07,4,.07,5.94.1a.83.83,0,0,0,.92-.75.81.81,0,0,0-.83-.88c-1.39-.06-2.77-.07-4.15-.13a1.39,1.39,0,0,1-.81-.3c-1.09-1-2.15-2-3.23-3a17.43,17.43,0,0,0-6.87-3.9,12.92,12.92,0,0,0-1.49-.36V50.4C64.36,51.18,67.28,53.41,70,56.22Z"/><path class="cls-2" d="M88.46,62.4A4.47,4.47,0,0,0,86,59.2c-1.58-.74-3.22-1.34-4.84-2a.81.81,0,0,0-1.12.47c-.16.46.1.88.65,1.08.72.25,1.45.48,2.16.77.89.37,1.76.8,2.65,1.2l0,.2a8.51,8.51,0,0,0-1,0,10.8,10.8,0,0,0-1.72.25,1.66,1.66,0,0,0-1,2.77A3.9,3.9,0,0,0,84,65.52c.92.24,1.88.34,2.84.51v.62c-1.25,0-2.47,0-3.69,0a1,1,0,0,1-.82-.39,5.45,5.45,0,0,0-8.45,0,.87.87,0,0,1-.78.37H60.56v1.67H72.79l-.14,2.16H60.56v1.64H72.71a.74.74,0,0,1,.73.41,5.45,5.45,0,0,0,9.41,0,.76.76,0,0,1,.82-.45c.42,0,.84,0,1.26,0a3.14,3.14,0,0,0,3.63-2.42v-7C88.53,62.6,88.48,62.5,88.46,62.4ZM78.15,73.6A3.85,3.85,0,1,1,82,69.79,3.83,3.83,0,0,1,78.15,73.6Zm4.9-10.81a6.68,6.68,0,0,1,1-.17c.78,0,1.56,0,2.34-.08.42,0,.55.18.55.54s0,.72,0,1.11C85.23,64.43,83.59,63.85,83.05,62.79Zm3.79,6.77a1.09,1.09,0,0,1-1,.88c-.72.06-1.44,0-2.16,0l-.16-2.13h3.42A8.28,8.28,0,0,1,86.84,69.56Z"/><path class="cls-2" d="M61.87,59.29c-.09-.53-.57-.58-1-.55h-.27v1.65a1.25,1.25,0,0,0,1-.2A1.22,1.22,0,0,0,61.87,59.29Z"/><path class="cls-2" d="M80.83,69.78a2.68,2.68,0,0,1-5.36,0,2.71,2.71,0,0,1,2.71-2.66A2.68,2.68,0,0,1,80.83,69.78Zm-2.67-1.06a1,1,0,1,0,0,2.07,1,1,0,0,0,0-2.07Z"/><line class="cls-3" x1="58.16" y1="39.32" x2="58.16" y2="82.68"/></svg>