<svg id="Layer_1" data-name="Layer 1" xmlns="http://www.w3.org/2000/svg" xmlns:xlink="http://www.w3.org/1999/xlink" viewBox="0 0 122 122"><defs><style>.cls-1{fill:url(#linear-gradient);}.cls-2{fill:#fff;}</style><linearGradient id="linear-gradient" x1="61" y1="118.29" x2="61" y2="26.83" gradientUnits="userSpaceOnUse"><stop offset="0" stop-color="#ed4523"/><stop offset="0.36" stop-color="#ed4823"/><stop offset="0.58" stop-color="#ee5022"/><stop offset="0.76" stop-color="#f05f22"/><stop offset="0.92" stop-color="#f27321"/><stop offset="1" stop-color="#f38020"/></linearGradient></defs><title>icon web tima</title><circle class="cls-1" cx="61" cy="61" r="61"/><path class="cls-2" d="M40.11,62.23a8.75,8.75,0,0,1,.71-1L59.23,42.08a2.25,2.25,0,0,1,2.66-.64,3.76,3.76,0,0,1,1,.73q7.2,7.47,14.38,15c1.3,1.35,2.61,2.7,3.9,4.06a9.9,9.9,0,0,1,.76,1v.65c-.25.35-.48.72-.76,1s-.82.83-1.24,1.24a1.45,1.45,0,0,1-2.23,0c-.37-.37-.75-.72-1.17-1.13v.51c0,4.54,0,9.08,0,13.63a2.43,2.43,0,0,1-2,2.54,6.67,6.67,0,0,1-1.55,0,.52.52,0,0,1-.49-.59.56.56,0,0,1,.54-.6,5.62,5.62,0,0,1,.82,0,1.26,1.26,0,0,0,1.42-1.43V64.35a4.82,4.82,0,0,0,0-1.66,4.73,4.73,0,0,0-1.11-1.23q-6.23-6.49-12.46-13c-.51-.53-.79-.53-1.29,0q-6.69,7-13.38,14a.92.92,0,0,0-.24.6c0,1.23,0,2.47,0,3.71,0,.48-.22.76-.59.78s-.63-.29-.63-.78c0-.89,0-1.78,0-2.69-.4.38-.78.72-1.14,1.07a1.46,1.46,0,0,1-2.29,0c-.41-.42-.84-.81-1.23-1.25a12.47,12.47,0,0,1-.74-1Zm40.58.3-.32-.37L62,43c-.72-.74-1.25-.74-2,0L48.6,54.91c-2.34,2.43-4.67,4.87-7,7.29-.27.28-.29.47,0,.73s.72.7,1.07,1.06c.57.56.56.56,1.12,0q7.84-8.17,15.71-16.34a2.55,2.55,0,0,1,.88-.63,1.89,1.89,0,0,1,2.16.63L72.92,58.45l5.51,5.74c.18.19.34.38.6.11l1.5-1.51A1.18,1.18,0,0,0,80.69,62.53Z"/><path class="cls-2" d="M55.42,79.53V79c0-2.11,0-4.21,0-6.32a5.57,5.57,0,0,1,11.12-.58c.1,2.29,0,4.6,0,6.89v.53h3.5c.47,0,.74.24.74.62s-.27.6-.72.6H48a2.4,2.4,0,0,1-2.43-2.4c0-2.83,0-5.66,0-8.48,0-.45.24-.71.61-.71s.61.26.61.71V78c0,1.06.45,1.5,1.52,1.5h7.17Zm1.22,0h8.69a1.41,1.41,0,0,0,0-.18c0-2.34,0-4.68,0-7a4.34,4.34,0,0,0-8.66,0c-.05,1,0,2.06,0,3.09Z"/></svg>