<svg id="Layer_1" data-name="Layer 1" xmlns="http://www.w3.org/2000/svg" xmlns:xlink="http://www.w3.org/1999/xlink" viewBox="0 0 122 122"><defs><style>.cls-1{fill:url(#linear-gradient);}.cls-2{fill:#fff;}</style><linearGradient id="linear-gradient" x1="61" y1="118.29" x2="61" y2="26.83" gradientUnits="userSpaceOnUse"><stop offset="0" stop-color="#ed4523"/><stop offset="0.36" stop-color="#ed4823"/><stop offset="0.58" stop-color="#ee5022"/><stop offset="0.76" stop-color="#f05f22"/><stop offset="0.92" stop-color="#f27321"/><stop offset="1" stop-color="#f38020"/></linearGradient></defs><title>icon web tima</title><circle class="cls-1" cx="61" cy="61" r="61"/><path class="cls-2" d="M87.06,69.34a3.3,3.3,0,0,1-2.67,2.48,22.23,22.23,0,0,0-2.51.81,1.69,1.69,0,0,0-.81.63,16.52,16.52,0,0,1-6.26,5.82.94.94,0,0,0-.53.73c-.3,1.7-.63,3.39-1,5.09a1.86,1.86,0,0,1-2,1.63c-1.11,0-2.23,0-3.35,0a1.85,1.85,0,0,1-1.94-1.59c-.1-.46-.19-.93-.28-1.39s-.17-.93-.25-1.31l-8,.16c-.14.69-.3,1.52-.46,2.34a1.91,1.91,0,0,1-2.13,1.79h-3A1.94,1.94,0,0,1,49.7,84.7c-.28-1.48-.58-3-.84-4.44a1.21,1.21,0,0,0-.66-.93A14.54,14.54,0,0,1,42,72.59a16.51,16.51,0,0,1-1.35-7v-.84c-.27-.18-.4,0-.56.22a5.44,5.44,0,0,1-3.31,2.59,2.16,2.16,0,0,1-1,.09,3.24,3.24,0,0,1-.86-.52v-.51A1.33,1.33,0,0,1,36,66a3.69,3.69,0,0,0,2.7-1.62c-.59-.22-1.15-.39-1.69-.63a2,2,0,0,1-1.41-1.92A2.36,2.36,0,0,1,37,59.77a2.2,2.2,0,0,1,2.43.55,3.8,3.8,0,0,1,1.16,2.42l0,.3s0,.05.13.15a3.79,3.79,0,0,0,.17-.51,14.53,14.53,0,0,1,3-6.78,15.32,15.32,0,0,1,4.1-3.46.77.77,0,0,1,1.11.21c.22.39.09.76-.34,1.09a31.69,31.69,0,0,0-3.06,2.43,12.72,12.72,0,0,0-3.55,8.12A15.24,15.24,0,0,0,43.43,72,12.86,12.86,0,0,0,49,78a2.46,2.46,0,0,1,1.38,2c.22,1.51.58,3,.85,4.5.08.42.28.55.69.55,1,0,2,0,3,0,.48,0,.67-.19.74-.63.13-.8.29-1.6.44-2.4a1.29,1.29,0,0,1,1.56-1.26c1.58,0,3.15.12,4.73.1,1,0,2-.14,3-.25A1.32,1.32,0,0,1,67,81.83c.17.88.35,1.76.5,2.64a.56.56,0,0,0,.64.55c1,0,2,0,3,0,.48,0,.65-.19.73-.63.31-1.75.67-3.5,1-5.25a1.61,1.61,0,0,1,.93-1.23,15.42,15.42,0,0,0,4.75-3.77,14.59,14.59,0,0,0,1.18-1.65,2.92,2.92,0,0,1,1.73-1.33c1-.29,1.94-.61,2.9-.93a1.42,1.42,0,0,0,1.17-1.61c0-1,0-2.07,0-3.1A1.39,1.39,0,0,0,84.45,64c-.56-.19-1.13-.38-1.7-.54a2.7,2.7,0,0,1-1.91-1.86,11.92,11.92,0,0,0-2.33-4.1c-.08.16-.16.27-.21.4a3.81,3.81,0,0,1-3.92,2.64,6,6,0,0,1-4.88-2.21,6.16,6.16,0,0,1-1.27-4.09c0-.8.13-1.59.2-2.43-.38-.09-.76-.19-1.16-.26a.42.42,0,0,0-.33.14,11.16,11.16,0,0,1-3,2.88l1,.33c.69.2,1,.57.79,1.07s-.56.59-1.2.39a18.89,18.89,0,0,0-7.68-.87c-1.42.15-2.83.49-4.24.76-.2,0-.39.12-.59.16A.75.75,0,1,1,51.66,55c.38-.13.77-.24,1.15-.36-.69-.63-1.41-1.19-2-1.85A10.33,10.33,0,1,1,67.52,40.9a1.2,1.2,0,0,1,.16.81.87.87,0,0,1-.61.5,1.08,1.08,0,0,1-.74-.4c-.5-.63-.87-1.39-1.42-2a8.82,8.82,0,0,0-15.15,4.33A8.75,8.75,0,0,0,55.09,54a1.76,1.76,0,0,0,.79.07,20.56,20.56,0,0,1,5.08,0,3.27,3.27,0,0,0,2.23-.82,8.68,8.68,0,0,0,4-6.73,1.76,1.76,0,0,1,.18-.68.61.61,0,0,1,.84-.26c.23.14.51.5.48.72-.16,1.09-.41,2.15-.64,3.23a4.29,4.29,0,0,1-.23.58c.72.13,1.31.51,2.12.11a26.68,26.68,0,0,1,6.24-2.28,5.71,5.71,0,0,1,1-.13,1.72,1.72,0,0,1,2,1.59,27.37,27.37,0,0,1,.19,3.84,20.93,20.93,0,0,1-.3,2.21.76.76,0,0,0,.14.54,14.08,14.08,0,0,1,3.11,5.25,1.13,1.13,0,0,0,.81.77c.44.13.87.3,1.31.41a3.23,3.23,0,0,1,2.63,2.46ZM77.94,51.55c0-.36-.08-1-.17-1.6s-.23-.71-.85-.61a5.19,5.19,0,0,0-.89.17l-5.42,2a1,1,0,0,0-.68.88c-.06.74-.18,1.48-.17,2.22A4.36,4.36,0,0,0,74.41,59a2.44,2.44,0,0,0,2.49-1.7A17.08,17.08,0,0,0,77.94,51.55ZM39.12,63a2.1,2.1,0,0,0-1-1.76c-.36-.2-.69,0-.94.41s0,.59.31.72C38,62.56,38.5,62.73,39.12,63Z"/><path class="cls-2" d="M58.23,40.91l.5-.57.58.53-.08.09c.44.09.89.16,1.33.29.22.06.51.17.59.35a1,1,0,0,1,0,.81c-.07.15-.46.25-.67.21a9.54,9.54,0,0,1-1.32-.46c0,1,0,1.79,0,2.63,0,.12.26.26.43.33a3,3,0,0,1,1.77,1.58,2.71,2.71,0,0,1-1.91,3.76l-.28.08.1.11-.54.62-.61-.65a12.26,12.26,0,0,1-1.62-.54,2.18,2.18,0,0,1-.81-.73.68.68,0,0,1,.16-1c.3-.28.56-.1.81.11a2.66,2.66,0,0,0,1.67.74c0-1,0-1.94,0-2.9,0-.11-.18-.26-.3-.32-.35-.19-.72-.31-1.06-.5a2.19,2.19,0,0,1-1.15-2.16,2.24,2.24,0,0,1,1.51-2.09c.3-.11.62-.18.93-.27Zm.86,8.27a1.23,1.23,0,0,0,1.17-1.29,1.41,1.41,0,0,0-1.17-1.37Zm-.66-4.55V42.29c-.82.12-1.23.46-1.26,1S57.56,44.37,58.43,44.63Z"/><path class="cls-2" d="M76.22,65.7a2.47,2.47,0,0,1-2.46-2.24.78.78,0,0,1,.62-1c.47-.07.76.17.87.7s.4.92.88,1a.92.92,0,0,0,1-.87c.07-.36.19-.66.56-.77a.76.76,0,0,1,1,.84A2.48,2.48,0,0,1,76.22,65.7Z"/></svg>