<svg id="Layer_1" data-name="Layer 1" xmlns="http://www.w3.org/2000/svg" xmlns:xlink="http://www.w3.org/1999/xlink" viewBox="0 0 122 122"><defs><style>.cls-1{fill:url(#linear-gradient);}.cls-2{fill:#fff;}</style><linearGradient id="linear-gradient" x1="61" y1="118.29" x2="61" y2="26.83" gradientUnits="userSpaceOnUse"><stop offset="0" stop-color="#ed4523"/><stop offset="0.36" stop-color="#ed4823"/><stop offset="0.58" stop-color="#ee5022"/><stop offset="0.76" stop-color="#f05f22"/><stop offset="0.92" stop-color="#f27321"/><stop offset="1" stop-color="#f38020"/></linearGradient></defs><title>icon web tima</title><circle class="cls-1" cx="61" cy="61" r="61"/><path class="cls-2" d="M89,66.36a9.67,9.67,0,0,1-1,.85c-1.33.89-2.67,1.76-4,2.65,1.94,2.34,2.38,4.85.77,7.47a5.58,5.58,0,0,1-5.67,2.76c-2.87-.32-4.59-2.07-5.34-4.85H51.52c-1.12,3.28-3.14,4.92-6,4.9a6.1,6.1,0,0,1-5.9-4.92H36.16c-.68,0-1.35,0-2,0A1,1,0,0,1,33,74.13c.15-4.36.9-8.58,3.35-12.32a10.7,10.7,0,0,1,2.87-2.9.85.85,0,0,0,.31-.61c.06-1,0-2,.13-3a4.21,4.21,0,0,1,4.13-3.53q7,0,14.06,0A4.33,4.33,0,0,1,62.08,56c0,1.06,0,2.11,0,3.17a1.48,1.48,0,0,1-.59,1.22,16.2,16.2,0,0,0-1.82,1.79A3.6,3.6,0,0,0,62.1,68a20,20,0,0,0,4.57-.12c2.23-.32,3.43-1.86,3.92-4a18.54,18.54,0,0,0,.35-2.59c.07-.79.49-1.26,1.16-1.23a1.1,1.1,0,0,1,1,1.29c0,.67-.1,1.34-.16,2.07a13.27,13.27,0,0,1,5-1.82,12.34,12.34,0,0,0-.63-4.2,28.29,28.29,0,0,0-1.4-3.19c-.56-1.15-1.18-2.26-1.8-3.38a1.32,1.32,0,0,0-.54-.45c-.53-.27-1.08-.49-1.65-.75.06.48.11,1,.17,1.45a1.11,1.11,0,0,1-.9,1.34A1.07,1.07,0,0,1,70,51.44c-.09-.64-.16-1.29-.24-2l-3.94,1c-.16,0-.31.09-.47.12a1.1,1.1,0,0,1-1.42-.76,1.09,1.09,0,0,1,.87-1.35L70,47.11l.34-.1a13.49,13.49,0,0,1,.12-1.59,4.32,4.32,0,0,1,4.19-3.55c1.08,0,2.15,0,3.23,0a1.1,1.1,0,0,1,1.23,1.22c0,2.11,0,4.23,0,6.34A1.11,1.11,0,0,1,78,50.61H76.41c2,3.45,3.87,6.84,3.71,10.86,1,.18,1.94.3,2.86.52a12.15,12.15,0,0,1,5.32,2.88,8,8,0,0,1,.7.84ZM54.81,73h12.3l.65-3.06a17.18,17.18,0,0,1-5.24.34A5.73,5.73,0,0,1,57.29,67a5.41,5.41,0,0,1,.52-6l.36-.52h-.69c-5.1,0-10.2,0-15.31,0a3.48,3.48,0,0,0-2.71,1.09A5.1,5.1,0,0,0,39,62c-2.13,2.41-2.93,5.37-3.43,8.45.41-.43.77-.88,1.13-1.33a11.33,11.33,0,0,1,4.94-3.58,9.65,9.65,0,0,1,11.11,2.71A9.25,9.25,0,0,1,54.81,73Zm31.24-7.1a10.46,10.46,0,0,0-10.9-1.11c-3.91,1.9-5.72,5.91-5.7,8.22h4.31a1,1,0,0,0,.07-.21,6,6,0,0,1,7.88-4.34.63.63,0,0,0,.45,0C83.46,67.6,84.75,66.75,86.05,65.9ZM36.37,73H52.59a6.82,6.82,0,0,0-3.51-5c-3.16-1.69-6.16-1.08-9,.88C38.57,69.91,37.64,71.55,36.37,73Zm39.5,1.1a3.83,3.83,0,1,0,3.84-3.81A3.85,3.85,0,0,0,75.87,74.11ZM49.7,58.24V53.9c-2,0-4,0-6,0a1.93,1.93,0,0,0-1.86,1.59,22.76,22.76,0,0,0-.15,2.74Zm10.2,0c0-.73,0-1.41,0-2.08a2.18,2.18,0,0,0-2.28-2.26H52v4.35Zm17-14.19c-.78,0-1.51,0-2.24,0a2.18,2.18,0,0,0-2.11,2,2.14,2.14,0,0,0,1.84,2.28,23.29,23.29,0,0,0,2.51,0ZM49.18,75.26H42a3.76,3.76,0,0,0,7.21,0Z"/></svg>