<svg id="Layer_1" data-name="Layer 1" xmlns="http://www.w3.org/2000/svg" xmlns:xlink="http://www.w3.org/1999/xlink" viewBox="0 0 122 122"><defs><style>.cls-1{fill:url(#linear-gradient);}.cls-2{fill:#fff;}</style><linearGradient id="linear-gradient" x1="61" y1="118.29" x2="61" y2="26.83" gradientUnits="userSpaceOnUse"><stop offset="0" stop-color="#ed4523"/><stop offset="0.36" stop-color="#ed4823"/><stop offset="0.58" stop-color="#ee5022"/><stop offset="0.76" stop-color="#f05f22"/><stop offset="0.92" stop-color="#f27321"/><stop offset="1" stop-color="#f38020"/></linearGradient></defs><title>icon web tima</title><circle class="cls-1" cx="61" cy="61" r="61"/><path class="cls-2" d="M34.65,53.07c.1-.29.18-.59.29-.87a3.86,3.86,0,0,1,3.69-2.41H62.24a2.51,2.51,0,0,1,.61.05.76.76,0,0,1-.12,1.47,3.46,3.46,0,0,1-.56,0H38.86A2.37,2.37,0,0,0,36.19,54V78a2.37,2.37,0,0,0,2.65,2.63H77A2.37,2.37,0,0,0,79.62,78V64a2.88,2.88,0,0,1,0-.51.72.72,0,0,1,.74-.66.73.73,0,0,1,.78.67,3.49,3.49,0,0,1,0,.46V78A3.88,3.88,0,0,1,77,82.17H38.93A3.91,3.91,0,0,1,34.7,79a.41.41,0,0,0-.05-.09Z"/><path class="cls-2" d="M47.74,54.42c1.47,0,2.95,0,4.42,0a3.87,3.87,0,0,1,4.06,4q0,4.47,0,8.94a3.9,3.9,0,0,1-4,4H43.36a3.88,3.88,0,0,1-4.08-4.11V58.52a3.87,3.87,0,0,1,4.09-4.1C44.83,54.41,46.28,54.42,47.74,54.42Zm6,14.91a2.17,2.17,0,0,0,.92-1.8c0-3.09,0-6.18,0-9.26A2.24,2.24,0,0,0,52.43,56q-4.68,0-9.36,0a2.23,2.23,0,0,0-2.23,2.19c0,3.16,0,6.31,0,9.47a1.85,1.85,0,0,0,.93,1.63c.94-2,.94-2,3.19-3.68a4.57,4.57,0,0,1-.35-6.79,4.52,4.52,0,0,1,6.24,0,4.35,4.35,0,0,1,1.39,2.95,4.5,4.5,0,0,1-1.71,3.88C52.52,66.93,53,67.45,53.75,69.33ZM50.7,62a2.95,2.95,0,1,0-2.93,3A3,3,0,0,0,50.7,62Zm1.52,7.81a4.67,4.67,0,0,0-5-3.26c-1.78.16-3.73,1.79-3.87,3.26Z"/><path class="cls-2" d="M65.38,54.42c-.15-.92-.32-1.76-.4-2.6a11.17,11.17,0,1,1,3.62,7.47,1.19,1.19,0,0,0-.69-.23c-2.47,0-4.94,0-7.4,0H60a.76.76,0,0,1-.09-1.5,3.6,3.6,0,0,1,.66,0H67c-.3-.51-.55-1-.84-1.42-.07-.1-.31-.11-.46-.12H60.21a.77.77,0,1,1,0-1.54c.12,0,.24,0,.36,0h4.83ZM85.79,51a9.66,9.66,0,1,0-9.65,9.67A9.68,9.68,0,0,0,85.79,51Z"/><path class="cls-2" d="M57.93,72.91H75.52c.65,0,1,.29,1,.77s-.37.77-1,.77H40.28c-.64,0-1-.29-1-.78s.37-.75,1-.76H57.93Z"/><path class="cls-2" d="M57.9,76H75.29a4.34,4.34,0,0,1,.51,0,.76.76,0,0,1,.11,1.5,2.19,2.19,0,0,1-.51,0h-35a2.15,2.15,0,0,1-.51,0,.72.72,0,0,1-.62-.82A.71.71,0,0,1,40,76a4.47,4.47,0,0,1,.52,0Z"/><path class="cls-2" d="M67.94,66.74h7.4a4.3,4.3,0,0,1,.51,0,.73.73,0,0,1,.67.68.71.71,0,0,1-.52.79,2,2,0,0,1-.61.06H60.48a2.07,2.07,0,0,1-.61-.06.7.7,0,0,1-.51-.79.72.72,0,0,1,.66-.68,4.34,4.34,0,0,1,.51,0Z"/><path class="cls-2" d="M68,69.83c2.52,0,5,0,7.56,0,.57,0,.89.22,1,.64a.77.77,0,0,1-.62.87,2.6,2.6,0,0,1-.56,0H60.22c-.55,0-.89-.34-.87-.81a.78.78,0,0,1,.88-.73C62.82,69.82,65.4,69.83,68,69.83Z"/><path class="cls-2" d="M74.44,55.35a5.87,5.87,0,0,1-1.14-.6c-.72-.64-1.37-1.34-2-2a.77.77,0,0,1-.07-1.14.78.78,0,0,1,1.15.05c.61.6,1.22,1.2,1.81,1.82.27.28.44.26.71,0q2.46-2.51,5-5a1.19,1.19,0,0,1,.75-.35.79.79,0,0,1,.61.41,1.08,1.08,0,0,1-.13.84,7.58,7.58,0,0,1-.92,1l-4.29,4.29A2.43,2.43,0,0,1,74.44,55.35Z"/></svg>